<svg xmlns="http://www.w3.org/2000/svg" style="display:none;">
	<symbol id="icon-logo" viewBox="0 0 129 40">
		<g filter="url(#filter0_d_1_85)">
			<path d="M42.0921 31.656C41.7508 31.656 41.4758 31.5517 41.2672 31.3431C41.0776 31.1535 40.9828 30.888 40.9828 30.5467V17.1209C41.0017 15.6418 41.3525 14.3144 42.0352 13.1387C42.7368 11.944 43.6755 11.0053 44.8512 10.3227C46.0459 9.64 47.3828 9.29866 48.8619 9.29866C50.3789 9.29866 51.7348 9.64948 52.9294 10.3511C54.1241 11.0338 55.0628 11.9724 55.7454 13.1671C56.4471 14.3618 56.7979 15.7176 56.7979 17.2347C56.7979 18.7327 56.4565 20.0791 55.7739 21.2738C55.1102 22.4684 54.2 23.4166 53.0432 24.1182C51.8865 24.8009 50.578 25.1422 49.1179 25.1422C47.8474 25.1422 46.6906 24.8767 45.6477 24.3458C44.6237 23.7959 43.7988 23.0753 43.173 22.184V30.5467C43.173 30.888 43.0687 31.1535 42.8601 31.3431C42.6705 31.5517 42.4145 31.656 42.0921 31.656ZM48.8619 23.1511C49.9617 23.1511 50.9478 22.8951 51.8201 22.3831C52.6924 21.8711 53.3751 21.1695 53.8681 20.2782C54.3801 19.368 54.6361 18.3535 54.6361 17.2347C54.6361 16.0969 54.3801 15.0824 53.8681 14.1911C53.3751 13.2999 52.6924 12.5982 51.8201 12.0862C50.9478 11.5553 49.9617 11.2898 48.8619 11.2898C47.781 11.2898 46.8044 11.5553 45.9321 12.0862C45.0598 12.5982 44.3771 13.2999 43.8841 14.1911C43.3911 15.0824 43.1445 16.0969 43.1445 17.2347C43.1445 18.3535 43.3911 19.368 43.8841 20.2782C44.3771 21.1695 45.0598 21.8711 45.9321 22.3831C46.8044 22.8951 47.781 23.1511 48.8619 23.1511ZM61.7765 18.6569C61.4352 18.6569 61.1602 18.5526 60.9517 18.344C60.762 18.1354 60.6672 17.8699 60.6672 17.5476V3.89422C60.6672 3.55289 60.762 3.2874 60.9517 3.09777C61.1602 2.88918 61.4352 2.78489 61.7765 2.78489C62.0989 2.78489 62.3549 2.88918 62.5445 3.09777C62.7531 3.2874 62.8574 3.55289 62.8574 3.89422V17.5476C62.8574 17.8699 62.7531 18.1354 62.5445 18.344C62.3549 18.5526 62.0989 18.6569 61.7765 18.6569ZM74.0077 25C73.6853 25 73.4198 24.8957 73.2112 24.6871C73.0026 24.4785 72.8983 24.2225 72.8983 23.9191V16.5236C72.8983 15.3479 72.6708 14.3807 72.2157 13.6222C71.7795 12.8637 71.1727 12.2948 70.3952 11.9156C69.6367 11.5363 68.7739 11.3467 67.8068 11.3467C66.8776 11.3467 66.0337 11.5268 65.2752 11.8871C64.5357 12.2474 63.9478 12.7404 63.5117 13.3662C63.0755 13.992 62.8574 14.7031 62.8574 15.4996H61.293C61.3309 14.3049 61.6533 13.243 62.2601 12.3138C62.8669 11.3656 63.6728 10.6261 64.6779 10.0951C65.6829 9.54518 66.8017 9.27022 68.0343 9.27022C69.3807 9.27022 70.5848 9.55466 71.6468 10.1236C72.7087 10.6735 73.5431 11.4889 74.1499 12.5698C74.7757 13.6507 75.0885 14.9686 75.0885 16.5236V23.9191C75.0885 24.2225 74.9842 24.4785 74.7757 24.6871C74.5671 24.8957 74.3111 25 74.0077 25ZM61.7765 25C61.4352 25 61.1602 24.9052 60.9517 24.7156C60.762 24.507 60.6672 24.2415 60.6672 23.9191V10.5502C60.6672 10.2089 60.762 9.94341 60.9517 9.75378C61.1602 9.54518 61.4352 9.44089 61.7765 9.44089C62.0989 9.44089 62.3549 9.54518 62.5445 9.75378C62.7531 9.94341 62.8574 10.2089 62.8574 10.5502V23.9191C62.8574 24.2415 62.7531 24.507 62.5445 24.7156C62.3549 24.9052 62.0989 25 61.7765 25ZM86.5732 25.1422C85.0562 25.1422 83.7003 24.8009 82.5057 24.1182C81.311 23.4356 80.3723 22.4969 79.6897 21.3022C79.007 20.1076 78.6657 18.7517 78.6657 17.2347C78.6657 15.6987 79.007 14.3333 79.6897 13.1387C80.3723 11.944 81.311 11.0053 82.5057 10.3227C83.7003 9.64 85.0562 9.29866 86.5732 9.29866C88.0903 9.29866 89.4366 9.64 90.6123 10.3227C91.807 11.0053 92.7457 11.944 93.4283 13.1387C94.111 14.3333 94.4618 15.6987 94.4808 17.2347C94.4808 18.7517 94.13 20.1076 93.4283 21.3022C92.7457 22.4969 91.807 23.4356 90.6123 24.1182C89.4366 24.8009 88.0903 25.1422 86.5732 25.1422ZM86.5732 23.1511C87.6731 23.1511 88.6591 22.8951 89.5314 22.3831C90.4037 21.8711 91.0864 21.1695 91.5794 20.2782C92.0725 19.387 92.319 18.3724 92.319 17.2347C92.319 16.0969 92.0725 15.0824 91.5794 14.1911C91.0864 13.2809 90.4037 12.5698 89.5314 12.0578C88.6591 11.5458 87.6731 11.2898 86.5732 11.2898C85.4734 11.2898 84.4873 11.5458 83.615 12.0578C82.7427 12.5698 82.0505 13.2809 81.5385 14.1911C81.0455 15.0824 80.799 16.0969 80.799 17.2347C80.799 18.3724 81.0455 19.387 81.5385 20.2782C82.0505 21.1695 82.7427 21.8711 83.615 22.3831C84.4873 22.8951 85.4734 23.1511 86.5732 23.1511ZM104.401 25C103.396 25 102.495 24.763 101.699 24.2889C100.921 23.8148 100.305 23.1701 99.8499 22.3547C99.3948 21.5203 99.1672 20.5721 99.1672 19.5102V5.60089C99.1672 5.27852 99.262 5.01303 99.4517 4.80444C99.6603 4.59585 99.9257 4.49155 100.248 4.49155C100.57 4.49155 100.836 4.59585 101.045 4.80444C101.253 5.01303 101.357 5.27852 101.357 5.60089V19.5102C101.357 20.4773 101.642 21.2738 102.211 21.8996C102.78 22.5064 103.51 22.8098 104.401 22.8098H105.169C105.472 22.8098 105.719 22.9141 105.909 23.1227C106.098 23.3313 106.193 23.5967 106.193 23.9191C106.193 24.2415 106.079 24.507 105.852 24.7156C105.624 24.9052 105.34 25 104.998 25H104.401ZM97.3183 11.9156C97.0339 11.9156 96.7968 11.8302 96.6072 11.6596C96.4176 11.4699 96.3228 11.2424 96.3228 10.9769C96.3228 10.6924 96.4176 10.4649 96.6072 10.2942C96.7968 10.1046 97.0339 10.0098 97.3183 10.0098H104.572C104.856 10.0098 105.093 10.1046 105.283 10.2942C105.472 10.4649 105.567 10.6924 105.567 10.9769C105.567 11.2424 105.472 11.4699 105.283 11.6596C105.093 11.8302 104.856 11.9156 104.572 11.9156H97.3183ZM116.414 25.1422C114.897 25.1422 113.541 24.8009 112.347 24.1182C111.152 23.4356 110.213 22.4969 109.531 21.3022C108.848 20.1076 108.507 18.7517 108.507 17.2347C108.507 15.6987 108.848 14.3333 109.531 13.1387C110.213 11.944 111.152 11.0053 112.347 10.3227C113.541 9.64 114.897 9.29866 116.414 9.29866C117.931 9.29866 119.278 9.64 120.453 10.3227C121.648 11.0053 122.587 11.944 123.269 13.1387C123.952 14.3333 124.303 15.6987 124.322 17.2347C124.322 18.7517 123.971 20.1076 123.269 21.3022C122.587 22.4969 121.648 23.4356 120.453 24.1182C119.278 24.8009 117.931 25.1422 116.414 25.1422ZM116.414 23.1511C117.514 23.1511 118.5 22.8951 119.373 22.3831C120.245 21.8711 120.928 21.1695 121.421 20.2782C121.914 19.387 122.16 18.3724 122.16 17.2347C122.16 16.0969 121.914 15.0824 121.421 14.1911C120.928 13.2809 120.245 12.5698 119.373 12.0578C118.5 11.5458 117.514 11.2898 116.414 11.2898C115.314 11.2898 114.328 11.5458 113.456 12.0578C112.584 12.5698 111.892 13.2809 111.38 14.1911C110.887 15.0824 110.64 16.0969 110.64 17.2347C110.64 18.3724 110.887 19.387 111.38 20.2782C111.892 21.1695 112.584 21.8711 113.456 22.3831C114.328 22.8951 115.314 23.1511 116.414 23.1511Z" fill="black" />
			<path fill-rule="evenodd" clip-rule="evenodd" d="M19.8464 2.96301H4.00001L10.6722 9.63517H26.5185L19.8464 2.96301ZM10.6722 9.63517V25.4815L4 18.8094V2.96302L10.6722 9.63517Z" fill="#CCCCCC" />
			<path fill-rule="evenodd" clip-rule="evenodd" d="M10.6721 25.4814L26.5185 25.4814L19.8463 18.8093L3.99996 18.8093L10.6721 25.4814ZM19.8463 18.8093L19.8463 2.96292L26.5185 9.63508L26.5185 25.4814L19.8463 18.8093Z" fill="black" />
		</g>
		<defs>
			<filter id="filter0_d_1_85" x="-6.10352e-05" y="0" width="130.074" height="40" filterUnits="userSpaceOnUse" color-interpolation-filters="sRGB">
				<feFlood flood-opacity="0" result="BackgroundImageFix" />
				<feColorMatrix in="SourceAlpha" type="matrix" values="0 0 0 0 0 0 0 0 0 0 0 0 0 0 0 0 0 0 127 0" result="hardAlpha" />
				<feOffset dy="4" />
				<feGaussianBlur stdDeviation="2" />
				<feComposite in2="hardAlpha" operator="out" />
				<feColorMatrix type="matrix" values="0 0 0 0 0 0 0 0 0 0 0 0 0 0 0 0 0 0 0.25 0" />
				<feBlend mode="normal" in2="BackgroundImageFix" result="effect1_dropShadow_1_85" />
				<feBlend mode="normal" in="SourceGraphic" in2="effect1_dropShadow_1_85" result="shape" />
			</filter>
		</defs>
	</symbol>
</svg>
